<mxfile host="app.diagrams.net" modified="2023-06-11T03:26:50.318Z" agent="Mozilla/5.0 (Windows NT 10.0; Win64; x64) AppleWebKit/537.36 (KHTML, like Gecko) Chrome/114.0.0.0 Safari/537.36" etag="osomZOLzcYprAMRqE_F5" version="21.3.7" type="device">
  <diagram name="Page-1" id="MTzUzdmJgPo8L4mjM65G">
    <mxGraphModel dx="1434" dy="788" grid="0" gridSize="10" guides="1" tooltips="1" connect="1" arrows="1" fold="1" page="1" pageScale="1" pageWidth="827" pageHeight="1169" math="0" shadow="0">
      <root>
        <mxCell id="0" />
        <mxCell id="1" parent="0" />
        <mxCell id="rwWCTkX3Q6m-H2DTTgU9-2" value="Player" style="swimlane;fontStyle=1;align=center;verticalAlign=top;childLayout=stackLayout;horizontal=1;startSize=26;horizontalStack=0;resizeParent=1;resizeParentMax=0;resizeLast=0;collapsible=1;marginBottom=0;whiteSpace=wrap;html=1;" parent="1" vertex="1">
          <mxGeometry x="381" y="560" width="160" height="150" as="geometry" />
        </mxCell>
        <mxCell id="rwWCTkX3Q6m-H2DTTgU9-3" value="name : string&lt;br&gt;cmnd : string&lt;br&gt;weight,height : double&lt;br&gt;postion : string&amp;nbsp;&lt;br&gt;" style="text;strokeColor=none;fillColor=none;align=left;verticalAlign=top;spacingLeft=4;spacingRight=4;overflow=hidden;rotatable=0;points=[[0,0.5],[1,0.5]];portConstraint=eastwest;whiteSpace=wrap;html=1;" parent="rwWCTkX3Q6m-H2DTTgU9-2" vertex="1">
          <mxGeometry y="26" width="160" height="74" as="geometry" />
        </mxCell>
        <mxCell id="rwWCTkX3Q6m-H2DTTgU9-4" value="" style="line;strokeWidth=1;fillColor=none;align=left;verticalAlign=middle;spacingTop=-1;spacingLeft=3;spacingRight=3;rotatable=0;labelPosition=right;points=[];portConstraint=eastwest;strokeColor=inherit;" parent="rwWCTkX3Q6m-H2DTTgU9-2" vertex="1">
          <mxGeometry y="100" width="160" height="8" as="geometry" />
        </mxCell>
        <mxCell id="rwWCTkX3Q6m-H2DTTgU9-5" value="void insert_info();&lt;br&gt;void show_info();" style="text;strokeColor=none;fillColor=none;align=left;verticalAlign=top;spacingLeft=4;spacingRight=4;overflow=hidden;rotatable=0;points=[[0,0.5],[1,0.5]];portConstraint=eastwest;whiteSpace=wrap;html=1;" parent="rwWCTkX3Q6m-H2DTTgU9-2" vertex="1">
          <mxGeometry y="108" width="160" height="42" as="geometry" />
        </mxCell>
        <mxCell id="rwWCTkX3Q6m-H2DTTgU9-10" value="Match" style="swimlane;fontStyle=1;align=center;verticalAlign=top;childLayout=stackLayout;horizontal=1;startSize=26;horizontalStack=0;resizeParent=1;resizeParentMax=0;resizeLast=0;collapsible=1;marginBottom=0;whiteSpace=wrap;html=1;" parent="1" vertex="1">
          <mxGeometry x="573" y="311" width="160" height="158" as="geometry" />
        </mxCell>
        <mxCell id="rwWCTkX3Q6m-H2DTTgU9-11" value="date_of_match: string&amp;nbsp;&lt;br&gt;stadium: string&lt;br&gt;team1,team2: string&lt;br&gt;score: string" style="text;strokeColor=none;fillColor=none;align=left;verticalAlign=top;spacingLeft=4;spacingRight=4;overflow=hidden;rotatable=0;points=[[0,0.5],[1,0.5]];portConstraint=eastwest;whiteSpace=wrap;html=1;" parent="rwWCTkX3Q6m-H2DTTgU9-10" vertex="1">
          <mxGeometry y="26" width="160" height="74" as="geometry" />
        </mxCell>
        <mxCell id="rwWCTkX3Q6m-H2DTTgU9-12" value="" style="line;strokeWidth=1;fillColor=none;align=left;verticalAlign=middle;spacingTop=-1;spacingLeft=3;spacingRight=3;rotatable=0;labelPosition=right;points=[];portConstraint=eastwest;strokeColor=inherit;" parent="rwWCTkX3Q6m-H2DTTgU9-10" vertex="1">
          <mxGeometry y="100" width="160" height="8" as="geometry" />
        </mxCell>
        <mxCell id="rwWCTkX3Q6m-H2DTTgU9-13" value="void insert_info();&lt;br&gt;void show_info();" style="text;strokeColor=none;fillColor=none;align=left;verticalAlign=top;spacingLeft=4;spacingRight=4;overflow=hidden;rotatable=0;points=[[0,0.5],[1,0.5]];portConstraint=eastwest;whiteSpace=wrap;html=1;" parent="rwWCTkX3Q6m-H2DTTgU9-10" vertex="1">
          <mxGeometry y="108" width="160" height="50" as="geometry" />
        </mxCell>
        <mxCell id="rwWCTkX3Q6m-H2DTTgU9-14" value="Team" style="swimlane;fontStyle=1;align=center;verticalAlign=top;childLayout=stackLayout;horizontal=1;startSize=26;horizontalStack=0;resizeParent=1;resizeParentMax=0;resizeLast=0;collapsible=1;marginBottom=0;whiteSpace=wrap;html=1;" parent="1" vertex="1">
          <mxGeometry x="181" y="305" width="160" height="181" as="geometry" />
        </mxCell>
        <mxCell id="rwWCTkX3Q6m-H2DTTgU9-15" value="name: string&amp;nbsp;&lt;br&gt;coach: string&lt;br&gt;location: string&lt;br&gt;list_player: vector&amp;lt;Player&amp;gt;" style="text;strokeColor=none;fillColor=none;align=left;verticalAlign=top;spacingLeft=4;spacingRight=4;overflow=hidden;rotatable=0;points=[[0,0.5],[1,0.5]];portConstraint=eastwest;whiteSpace=wrap;html=1;" parent="rwWCTkX3Q6m-H2DTTgU9-14" vertex="1">
          <mxGeometry y="26" width="160" height="74" as="geometry" />
        </mxCell>
        <mxCell id="rwWCTkX3Q6m-H2DTTgU9-16" value="" style="line;strokeWidth=1;fillColor=none;align=left;verticalAlign=middle;spacingTop=-1;spacingLeft=3;spacingRight=3;rotatable=0;labelPosition=right;points=[];portConstraint=eastwest;strokeColor=inherit;" parent="rwWCTkX3Q6m-H2DTTgU9-14" vertex="1">
          <mxGeometry y="100" width="160" height="8" as="geometry" />
        </mxCell>
        <mxCell id="rwWCTkX3Q6m-H2DTTgU9-17" value="void insert_info();&lt;br&gt;void show_info();&lt;br&gt;void addPlayer();&lt;br&gt;get_name();" style="text;strokeColor=none;fillColor=none;align=left;verticalAlign=top;spacingLeft=4;spacingRight=4;overflow=hidden;rotatable=0;points=[[0,0.5],[1,0.5]];portConstraint=eastwest;whiteSpace=wrap;html=1;" parent="rwWCTkX3Q6m-H2DTTgU9-14" vertex="1">
          <mxGeometry y="108" width="160" height="73" as="geometry" />
        </mxCell>
        <mxCell id="rwWCTkX3Q6m-H2DTTgU9-19" value="Footballmanager" style="swimlane;fontStyle=1;align=center;verticalAlign=top;childLayout=stackLayout;horizontal=1;startSize=26;horizontalStack=0;resizeParent=1;resizeParentMax=0;resizeLast=0;collapsible=1;marginBottom=0;whiteSpace=wrap;html=1;" parent="1" vertex="1">
          <mxGeometry x="385" y="49" width="160" height="228" as="geometry" />
        </mxCell>
        <mxCell id="rwWCTkX3Q6m-H2DTTgU9-20" value="list_Team: vector&amp;lt;Team&amp;gt;&lt;br&gt;list_Match: vector&amp;lt;Match&amp;gt;" style="text;strokeColor=none;fillColor=none;align=left;verticalAlign=top;spacingLeft=4;spacingRight=4;overflow=hidden;rotatable=0;points=[[0,0.5],[1,0.5]];portConstraint=eastwest;whiteSpace=wrap;html=1;" parent="rwWCTkX3Q6m-H2DTTgU9-19" vertex="1">
          <mxGeometry y="26" width="160" height="54" as="geometry" />
        </mxCell>
        <mxCell id="rwWCTkX3Q6m-H2DTTgU9-21" value="" style="line;strokeWidth=1;fillColor=none;align=left;verticalAlign=middle;spacingTop=-1;spacingLeft=3;spacingRight=3;rotatable=0;labelPosition=right;points=[];portConstraint=eastwest;strokeColor=inherit;" parent="rwWCTkX3Q6m-H2DTTgU9-19" vertex="1">
          <mxGeometry y="80" width="160" height="8" as="geometry" />
        </mxCell>
        <mxCell id="rwWCTkX3Q6m-H2DTTgU9-22" value="void addTeam,Match&lt;br&gt;void removeTeam, Match&lt;br&gt;void find_Match();&lt;br&gt;void find_team_by_name ();&lt;br&gt;void get_list_Team();&lt;br&gt;void show_results();&lt;br&gt;void calculate_points();&lt;br&gt;" style="text;strokeColor=none;fillColor=none;align=left;verticalAlign=top;spacingLeft=4;spacingRight=4;overflow=hidden;rotatable=0;points=[[0,0.5],[1,0.5]];portConstraint=eastwest;whiteSpace=wrap;html=1;" parent="rwWCTkX3Q6m-H2DTTgU9-19" vertex="1">
          <mxGeometry y="88" width="160" height="140" as="geometry" />
        </mxCell>
      </root>
    </mxGraphModel>
  </diagram>
</mxfile>
